<?xml version="1.0" encoding="utf-8"?>
<!-- Generator: Adobe Illustrator 24.3.0, SVG Export Plug-In . SVG Version: 6.00 Build 0)  -->
<svg version="1.1" id="Layer_1" xmlns="http://www.w3.org/2000/svg" xmlns:xlink="http://www.w3.org/1999/xlink" x="0px" y="0px"
	 viewBox="0 0 500 634" style="enable-background:new 0 0 500 634;" xml:space="preserve">
<style type="text/css">
	.st0{fill:#FFFFFF;}
	.st1{fill:#00002B;}
	.st2{fill:#2862F1;}
</style>
<g>
	<path class="st2" d="M500,536.23L280.77,317l53.33-53.33c17.67-17.67,29.19-39.6,33.32-63.42c3.84-22.14,1.23-45.03-7.54-66.2
		c-8.77-21.16-23.11-39.19-41.48-52.14c-13.91-9.8-29.76-16.34-46.65-19.36V0.01h-43.51v62.55c-16.88,3.02-32.73,9.55-46.65,19.36
		c-18.37,12.95-32.71,30.97-41.48,52.14c-8.77,21.16-11.37,44.05-7.54,66.2c4.13,23.82,15.65,45.75,33.32,63.42L219.23,317L0,536.23
		L30.77,567l197.47-197.47v264.46h43.51V369.53L469.23,567L500,536.23z M196.67,232.9c-26.27-26.27-25.67-59.69-16.35-82.2
		c9.32-22.51,32.52-46.56,69.68-46.56s60.36,24.05,69.68,46.56c9.32,22.51,9.92,55.92-16.35,82.2L250,286.23L196.67,232.9z"/>
</g>
</svg>
